<svg xmlns="http://www.w3.org/2000/svg" viewBox="0 0 512 512">
  <defs>
    <linearGradient id="g" x1="0" y1="0" x2="1" y2="0">
      <stop offset="0%" stop-color="#2AB3FF"/>
      <stop offset="50%" stop-color="#2196F3"/>
      <stop offset="100%" stop-color="#9C4DFF"/>
    </linearGradient>
    <linearGradient id="h" x1="0" y1="0" x2="0" y2="1">
      <stop offset="0%" stop-color="#FFFFFF"/>
      <stop offset="100%" stop-color="#F7F7F9"/>
    </linearGradient>
    <filter id="shadow" x="-20%" y="-20%" width="140%" height="140%">
      <feDropShadow dx="0" dy="2" stdDeviation="6" flood-color="#000" flood-opacity="0.15"/>
    </filter>
  </defs>

  <g filter="url(#shadow)">
    <circle cx="256" cy="256" r="236" fill="url(#h)"/>
  </g>

  <!-- Cortexify "C" mark with circuit nodes -->
  <path d="M332 128c-92 0-140 54-140 128s48 128 140 128c15 0 30-2 44-5v-54c-14 6-29 9-44 9-64 0-92-40-92-78s28-78 92-78c15 0 30 3 44 9v-54c-14-4-29-5-44-5z" fill="url(#g)"/>

  <!-- circuit nodes -->
  <g fill="#8BE0FF" opacity="0.95">
    <circle cx="358" cy="168" r="6"/>
    <circle cx="386" cy="180" r="6"/>
    <circle cx="404" cy="208" r="6"/>
    <circle cx="404" cy="304" r="6"/>
    <circle cx="386" cy="332" r="6"/>
    <circle cx="358" cy="344" r="6"/>
  </g>
  <g fill="#B57CFF" opacity="0.95">
    <circle cx="304" cy="160" r="6"/>
    <circle cx="276" cy="176" r="6"/>
    <circle cx="262" cy="206" r="6"/>
    <circle cx="262" cy="306" r="6"/>
    <circle cx="276" cy="336" r="6"/>
    <circle cx="304" cy="352" r="6"/>
  </g>
</svg>